<?xml version="1.0" encoding="UTF-8"?>
<svg xmlns="http://www.w3.org/2000/svg" xmlns:xlink="http://www.w3.org/1999/xlink" width="309.41pt" height="320.78pt" viewBox="0 0 309.41 320.78" version="1.1">
<defs>
<clipPath id="clip1">
  <path d="M 229 89 L 309.410156 89 L 309.410156 242 L 229 242 Z M 229 89 "/>
</clipPath>
<clipPath id="clip2">
  <path d="M 11 215 L 148 215 L 148 320.78125 L 11 320.78125 Z M 11 215 "/>
</clipPath>
</defs>
<g id="surface1">
<path style=" stroke:none;fill-rule:nonzero;fill:rgb(11.399841%,11.399841%,25.898743%);fill-opacity:1;" d="M 160.816406 218.8125 L 160.816406 228.859375 C 160.816406 232.234375 162.222656 233.792969 164.34375 233.792969 C 166.621094 233.792969 167.976563 232.234375 167.976563 228.859375 L 167.976563 218.8125 L 171.121094 218.8125 L 171.121094 228.652344 C 171.121094 233.96875 168.382813 236.324219 164.242188 236.324219 C 160.253906 236.324219 157.671875 234.097656 157.671875 228.679688 L 157.671875 218.8125 "/>
<path style=" stroke:none;fill-rule:nonzero;fill:rgb(11.399841%,11.399841%,25.898743%);fill-opacity:1;" d="M 179.554688 218.8125 L 182.699219 218.8125 L 182.699219 229.984375 C 182.699219 234.738281 180.398438 236.324219 176.972656 236.324219 C 176.101563 236.324219 175.003906 236.167969 174.339844 235.914063 L 174.722656 233.382813 C 175.234375 233.535156 175.925781 233.691406 176.664063 233.691406 C 178.453125 233.691406 179.554688 232.871094 179.554688 229.878906 "/>
<path style=" stroke:none;fill-rule:nonzero;fill:rgb(11.399841%,11.399841%,25.898743%);fill-opacity:1;" d="M 195.9375 228.78125 L 194.585938 224.539063 C 194.25 223.492188 193.96875 222.316406 193.714844 221.320313 L 193.664063 221.320313 C 193.40625 222.316406 193.152344 223.515625 192.84375 224.539063 L 191.515625 228.78125 Z M 191.003906 231.160156 L 189.523438 236.042969 L 186.277344 236.042969 L 191.796875 218.8125 L 195.808594 218.8125 L 201.410156 236.042969 L 198.035156 236.042969 L 196.476563 231.160156 "/>
<path style=" stroke:none;fill-rule:nonzero;fill:rgb(11.399841%,11.399841%,25.898743%);fill-opacity:1;" d="M 171.472656 251.722656 C 171.378906 249.496094 171.261719 246.816406 171.285156 244.460938 L 171.214844 244.460938 C 170.695313 246.582031 170.035156 248.910156 169.332031 251.082031 L 167.027344 258.546875 L 164.792969 258.546875 L 162.675781 251.1875 C 162.0625 248.988281 161.496094 246.636719 161.074219 244.460938 L 161.03125 244.460938 C 160.960938 246.738281 160.863281 249.472656 160.746094 251.824219 L 160.394531 258.75 L 157.6875 258.75 L 158.746094 241.523438 L 162.558594 241.523438 L 164.628906 248.449219 C 165.191406 250.46875 165.6875 252.515625 166.085938 254.433594 L 166.15625 254.433594 C 166.578125 252.566406 167.121094 250.445313 167.730469 248.425781 L 169.917969 241.523438 L 173.683594 241.523438 L 174.601563 258.75 L 171.777344 258.75 "/>
<path style=" stroke:none;fill-rule:nonzero;fill:rgb(11.399841%,11.399841%,25.898743%);fill-opacity:1;" d="M 186.871094 251.492188 L 185.628906 247.25 C 185.320313 246.203125 185.0625 245.023438 184.828125 244.027344 L 184.78125 244.027344 C 184.546875 245.023438 184.308594 246.226563 184.027344 247.25 L 182.804688 251.492188 Z M 182.335938 253.871094 L 180.96875 258.75 L 177.980469 258.75 L 183.0625 241.523438 L 186.757813 241.523438 L 191.90625 258.75 L 188.804688 258.75 L 187.367188 253.871094 "/>
<path style=" stroke:none;fill-rule:nonzero;fill:rgb(11.399841%,11.399841%,25.898743%);fill-opacity:1;" d="M 206.746094 258.238281 C 206.0625 258.625 204.558594 259.03125 202.652344 259.03125 C 197.617188 259.03125 194.5625 255.582031 194.5625 250.34375 C 194.5625 244.667969 198.183594 241.242188 203.027344 241.242188 C 204.933594 241.242188 206.296875 241.675781 206.886719 242.007813 L 206.25 244.511719 C 205.496094 244.15625 204.464844 243.847656 203.144531 243.847656 C 199.925781 243.847656 197.597656 246.046875 197.597656 250.1875 C 197.597656 253.96875 199.640625 256.398438 203.121094 256.398438 C 204.300781 256.398438 205.519531 256.144531 206.273438 255.761719 "/>
<path style=" stroke:none;fill-rule:nonzero;fill:rgb(11.399841%,11.399841%,25.898743%);fill-opacity:1;" d="M 221.726563 258.238281 C 221.042969 258.625 219.535156 259.03125 217.632813 259.03125 C 212.601563 259.03125 209.542969 255.582031 209.542969 250.34375 C 209.542969 244.667969 213.164063 241.242188 218.007813 241.242188 C 219.914063 241.242188 221.277344 241.675781 221.867188 242.007813 L 221.230469 244.511719 C 220.480469 244.15625 219.445313 243.847656 218.128906 243.847656 C 214.90625 243.847656 212.574219 246.046875 212.574219 250.1875 C 212.574219 253.96875 214.621094 256.398438 218.105469 256.398438 C 219.28125 256.398438 220.503906 256.144531 221.253906 255.761719 "/>
<path style=" stroke:none;fill-rule:nonzero;fill:rgb(11.399841%,11.399841%,25.898743%);fill-opacity:1;" d="M 233.835938 251.492188 L 232.589844 247.25 C 232.28125 246.203125 232.023438 245.023438 231.789063 244.027344 L 231.742188 244.027344 C 231.507813 245.023438 231.273438 246.226563 230.988281 247.25 L 229.765625 251.492188 Z M 229.296875 253.871094 L 227.933594 258.75 L 224.945313 258.75 L 230.023438 241.523438 L 233.71875 241.523438 L 238.867188 258.75 L 235.765625 258.75 L 234.328125 253.871094 "/>
<path style=" stroke:none;fill-rule:nonzero;fill:rgb(11.399841%,11.399841%,25.898743%);fill-opacity:1;" d="M 245.710938 256.476563 C 246.085938 256.554688 246.578125 256.554688 247.238281 256.554688 C 249.097656 256.554688 250.742188 255.785156 250.742188 253.664063 C 250.742188 251.667969 249.144531 250.851563 247.144531 250.851563 L 245.710938 250.851563 Z M 245.710938 248.554688 L 247.191406 248.554688 C 249.191406 248.554688 250.320313 247.53125 250.320313 246.074219 C 250.320313 244.460938 249.191406 243.722656 247.355469 243.722656 C 246.511719 243.722656 246.015625 243.773438 245.710938 243.847656 Z M 242.839844 241.753906 C 243.757813 241.546875 245.429688 241.394531 247.050781 241.394531 C 249.191406 241.394531 250.507813 241.675781 251.589844 242.496094 C 252.578125 243.132813 253.234375 244.257813 253.234375 245.714844 C 253.234375 247.300781 252.316406 248.753906 250.601563 249.449219 L 250.601563 249.496094 C 252.273438 249.957031 253.800781 251.390625 253.800781 253.765625 C 253.800781 255.300781 253.1875 256.5 252.273438 257.320313 C 251.144531 258.394531 249.285156 258.929688 246.390625 258.929688 C 244.792969 258.929688 243.570313 258.800781 242.839844 258.699219 "/>
<path style=" stroke:none;fill-rule:nonzero;fill:rgb(11.399841%,11.399841%,25.898743%);fill-opacity:1;" d="M 258.148438 258.75 L 261.039063 258.75 L 261.039063 241.523438 L 258.148438 241.523438 Z M 258.148438 258.75 "/>
<path style=" stroke:none;fill-rule:nonzero;fill:rgb(11.399841%,11.399841%,25.898743%);fill-opacity:1;" d="M 160.550781 271.957031 C 160.933594 272.058594 161.445313 272.082031 162.085938 272.082031 C 164.4375 272.082031 165.867188 270.933594 165.867188 268.914063 C 165.867188 266.996094 164.535156 265.972656 162.363281 265.972656 C 161.496094 265.972656 160.882813 266.050781 160.550781 266.128906 Z M 157.433594 263.929688 C 158.558594 263.726563 160.113281 263.570313 162.238281 263.570313 C 164.535156 263.570313 166.226563 264.058594 167.324219 264.976563 C 168.347656 265.820313 169.011719 267.175781 169.011719 268.785156 C 169.011719 270.421875 168.5 271.773438 167.527344 272.695313 C 166.277344 273.949219 164.308594 274.535156 162.085938 274.535156 C 161.496094 274.535156 160.960938 274.511719 160.550781 274.433594 L 160.550781 280.925781 L 157.433594 280.925781 "/>
<path style=" stroke:none;fill-rule:nonzero;fill:rgb(11.399841%,11.399841%,25.898743%);fill-opacity:1;" d="M 179.695313 273.667969 L 178.339844 269.425781 C 178.007813 268.378906 177.726563 267.199219 177.46875 266.203125 L 177.421875 266.203125 C 177.164063 267.199219 176.90625 268.402344 176.601563 269.425781 L 175.273438 273.667969 Z M 174.761719 276.042969 L 173.277344 280.925781 L 170.03125 280.925781 L 175.554688 263.699219 L 179.566406 263.699219 L 185.164063 280.925781 L 181.789063 280.925781 L 180.230469 276.042969 "/>
<path style=" stroke:none;fill-rule:nonzero;fill:rgb(11.399841%,11.399841%,25.898743%);fill-opacity:1;" d="M 192.09375 271.546875 L 193.957031 271.546875 C 196.078125 271.546875 197.40625 270.421875 197.40625 268.710938 C 197.40625 266.816406 196.078125 265.945313 194.035156 265.945313 C 193.035156 265.945313 192.398438 266.023438 192.09375 266.101563 Z M 188.972656 263.929688 C 190.148438 263.726563 191.910156 263.570313 193.726563 263.570313 C 196.207031 263.570313 197.894531 263.980469 199.046875 264.949219 C 199.988281 265.742188 200.527344 266.945313 200.527344 268.402344 C 200.527344 270.625 199.019531 272.132813 197.40625 272.722656 L 197.40625 272.796875 C 198.636719 273.257813 199.378906 274.460938 199.8125 276.121094 C 200.347656 278.269531 200.808594 280.261719 201.164063 280.925781 L 197.921875 280.925781 C 197.664063 280.414063 197.253906 279.011719 196.769531 276.863281 C 196.28125 274.613281 195.464844 273.898438 193.675781 273.847656 L 192.09375 273.847656 L 192.09375 280.925781 L 188.972656 280.925781 "/>
<path style=" stroke:none;fill-rule:nonzero;fill:rgb(11.399841%,11.399841%,25.898743%);fill-opacity:1;" d="M 204.921875 280.925781 L 208.066406 280.925781 L 208.066406 263.699219 L 204.921875 263.699219 Z M 204.921875 280.925781 "/>
<path style=" stroke:none;fill-rule:nonzero;fill:rgb(11.399841%,11.399841%,25.898743%);fill-opacity:1;" d="M 213 277.503906 C 214.023438 278.089844 215.554688 278.601563 217.164063 278.601563 C 219.1875 278.601563 220.3125 277.652344 220.3125 276.25 C 220.3125 274.945313 219.441406 274.179688 217.242188 273.386719 C 214.40625 272.363281 212.59375 270.855469 212.59375 268.378906 C 212.59375 265.5625 214.941406 263.417969 218.675781 263.417969 C 220.539063 263.417969 221.921875 263.828125 222.8125 264.285156 L 222.050781 266.816406 C 221.433594 266.484375 220.234375 266 218.621094 266 C 216.632813 266 215.761719 267.070313 215.761719 268.070313 C 215.761719 269.398438 216.757813 270.011719 219.058594 270.90625 C 222.050781 272.03125 223.507813 273.539063 223.507813 276.019531 C 223.507813 278.777344 221.410156 281.207031 216.964844 281.207031 C 215.148438 281.207031 213.257813 280.671875 212.308594 280.109375 "/>
<path style=" stroke:none;fill-rule:nonzero;fill:rgb(11.399841%,11.399841%,25.898743%);fill-opacity:1;" d="M 164.433594 288.375 C 164.394531 287.371094 164.359375 286.164063 164.359375 284.957031 L 164.324219 284.957031 C 164.066406 286.015625 163.722656 287.199219 163.40625 288.175781 L 162.40625 291.417969 L 160.953125 291.417969 L 160.074219 288.210938 C 159.804688 287.226563 159.523438 286.039063 159.328125 284.957031 L 159.304688 284.957031 C 159.253906 286.078125 159.21875 287.359375 159.15625 288.394531 L 159.011719 291.554688 L 157.289063 291.554688 L 157.8125 283.242188 L 160.292969 283.242188 L 161.097656 286.015625 C 161.355469 286.964844 161.613281 288.015625 161.792969 288.988281 L 161.828125 288.988281 C 162.0625 288.027344 162.34375 286.929688 162.613281 286.003906 L 163.492188 283.242188 L 165.921875 283.242188 L 166.371094 291.554688 L 164.554688 291.554688 "/>
<path style=" stroke:none;fill-rule:nonzero;fill:rgb(11.399841%,11.399841%,25.898743%);fill-opacity:1;" d="M 173.335938 282.894531 L 171.84375 284.769531 L 170.5625 284.769531 L 171.613281 282.894531 Z M 172.308594 287.855469 C 172.308594 287.398438 172.113281 286.632813 171.257813 286.632813 C 170.476563 286.632813 170.160156 287.347656 170.109375 287.855469 Z M 170.121094 289.136719 C 170.183594 289.914063 170.941406 290.285156 171.808594 290.285156 C 172.441406 290.285156 172.953125 290.199219 173.453125 290.039063 L 173.699219 291.308594 C 173.089844 291.554688 172.34375 291.691406 171.539063 291.691406 C 169.511719 291.691406 168.351563 290.492188 168.351563 288.605469 C 168.351563 287.078125 169.292969 285.386719 171.367188 285.386719 C 173.296875 285.386719 174.027344 286.90625 174.027344 288.398438 C 174.027344 288.71875 173.992188 289 173.96875 289.136719 "/>
<path style=" stroke:none;fill-rule:nonzero;fill:rgb(11.399841%,11.399841%,25.898743%);fill-opacity:1;" d="M 178.132813 283.882813 L 178.132813 285.523438 L 179.464844 285.523438 L 179.464844 286.902344 L 178.132813 286.902344 L 178.132813 289.089844 C 178.132813 289.816406 178.304688 290.148438 178.863281 290.148438 C 179.121094 290.148438 179.234375 290.136719 179.414063 290.097656 L 179.429688 291.519531 C 179.183594 291.617188 178.742188 291.691406 178.21875 291.691406 C 177.621094 291.691406 177.121094 291.46875 176.828125 291.160156 C 176.484375 290.804688 176.316406 290.222656 176.316406 289.371094 L 176.316406 286.902344 L 175.523438 286.902344 L 175.523438 285.523438 L 176.316406 285.523438 L 176.316406 284.386719 "/>
<path style=" stroke:none;fill-rule:nonzero;fill:rgb(11.399841%,11.399841%,25.898743%);fill-opacity:1;" d="M 181.453125 287.507813 C 181.453125 286.621094 181.429688 286.039063 181.40625 285.523438 L 183.007813 285.523438 L 183.066406 286.632813 L 183.113281 286.632813 C 183.421875 285.757813 184.152344 285.386719 184.726563 285.386719 C 184.898438 285.386719 184.984375 285.386719 185.117188 285.410156 L 185.117188 287.1875 C 184.984375 287.152344 184.824219 287.125 184.617188 287.125 C 183.933594 287.125 183.46875 287.496094 183.347656 288.074219 C 183.324219 288.199219 183.308594 288.347656 183.308594 288.496094 L 183.308594 291.554688 L 181.453125 291.554688 "/>
<path style=" stroke:none;fill-rule:nonzero;fill:rgb(11.399841%,11.399841%,25.898743%);fill-opacity:1;" d="M 188.488281 288.53125 C 188.488281 289.570313 188.914063 290.347656 189.710938 290.347656 C 190.429688 290.347656 190.894531 289.617188 190.894531 288.53125 C 190.894531 287.632813 190.550781 286.71875 189.710938 286.71875 C 188.816406 286.71875 188.488281 287.644531 188.488281 288.53125 M 192.808594 288.46875 C 192.808594 290.679688 191.257813 291.691406 189.660156 291.691406 C 187.914063 291.691406 186.570313 290.53125 186.570313 288.582031 C 186.570313 286.632813 187.84375 285.386719 189.757813 285.386719 C 191.589844 285.386719 192.808594 286.65625 192.808594 288.46875 "/>
<path style=" stroke:none;fill-rule:nonzero;fill:rgb(11.399841%,11.399841%,25.898743%);fill-opacity:1;" d="M 196.730469 288.964844 C 196.730469 289.113281 196.746094 289.25 196.769531 289.359375 C 196.890625 289.863281 197.316406 290.246094 197.855469 290.246094 C 198.660156 290.246094 199.136719 289.566406 199.136719 288.546875 C 199.136719 287.582031 198.710938 286.855469 197.878906 286.855469 C 197.355469 286.855469 196.890625 287.25 196.769531 287.804688 C 196.746094 287.902344 196.730469 288.027344 196.730469 288.136719 Z M 194.875 287.546875 C 194.875 286.757813 194.851563 286.078125 194.828125 285.523438 L 196.4375 285.523438 L 196.523438 286.359375 L 196.546875 286.359375 C 196.984375 285.71875 197.671875 285.386719 198.539063 285.386719 C 199.84375 285.386719 201.015625 286.535156 201.015625 288.457031 C 201.015625 290.652344 199.636719 291.691406 198.304688 291.691406 C 197.585938 291.691406 197.023438 291.394531 196.753906 291 L 196.730469 291 L 196.730469 293.996094 L 194.875 293.996094 "/>
<path style=" stroke:none;fill-rule:nonzero;fill:rgb(11.399841%,11.399841%,25.898743%);fill-opacity:1;" d="M 204.703125 288.53125 C 204.703125 289.570313 205.132813 290.347656 205.925781 290.347656 C 206.644531 290.347656 207.109375 289.617188 207.109375 288.53125 C 207.109375 287.632813 206.769531 286.71875 205.925781 286.71875 C 205.035156 286.71875 204.703125 287.644531 204.703125 288.53125 M 209.027344 288.46875 C 209.027344 290.679688 207.476563 291.691406 205.878906 291.691406 C 204.132813 291.691406 202.789063 290.53125 202.789063 288.582031 C 202.789063 286.632813 204.058594 285.386719 205.976563 285.386719 C 207.808594 285.386719 209.027344 286.65625 209.027344 288.46875 "/>
<path style=" stroke:none;fill-rule:nonzero;fill:rgb(11.399841%,11.399841%,25.898743%);fill-opacity:1;" d="M 211.09375 291.554688 L 212.945313 291.554688 L 212.945313 282.796875 L 211.09375 282.796875 Z M 211.09375 291.554688 "/>
<path style=" stroke:none;fill-rule:nonzero;fill:rgb(11.399841%,11.399841%,25.898743%);fill-opacity:1;" d="M 218.980469 287.855469 C 218.980469 287.398438 218.785156 286.632813 217.929688 286.632813 C 217.148438 286.632813 216.832031 287.347656 216.78125 287.855469 Z M 216.792969 289.136719 C 216.855469 289.914063 217.609375 290.285156 218.480469 290.285156 C 219.113281 290.285156 219.628906 290.199219 220.128906 290.039063 L 220.371094 291.308594 C 219.761719 291.554688 219.015625 291.691406 218.210938 291.691406 C 216.183594 291.691406 215.023438 290.492188 215.023438 288.605469 C 215.023438 287.078125 215.964844 285.386719 218.039063 285.386719 C 219.96875 285.386719 220.703125 286.90625 220.703125 288.398438 C 220.703125 288.71875 220.664063 289 220.640625 289.136719 "/>
<path style=" stroke:none;fill-rule:nonzero;fill:rgb(11.399841%,11.399841%,25.898743%);fill-opacity:1;" d="M 0 232.589844 C 33.851563 226.386719 75.261719 202.070313 75.261719 168.984375 C 75.261719 128.558594 6.703125 91.308594 6.703125 91.308594 C 6.703125 91.308594 58.816406 125.984375 58.816406 165.21875 C 58.816406 208.8125 0 232.589844 0 232.589844 "/>
<g clip-path="url(#clip1)" clip-rule="nonzero">
<path style=" stroke:none;fill-rule:nonzero;fill:rgb(11.399841%,11.399841%,25.898743%);fill-opacity:1;" d="M 243.355469 157.394531 C 243.355469 113.65625 309.414063 89.722656 309.414063 89.722656 C 267.878906 96.394531 229.152344 118.519531 229.152344 158.144531 C 229.152344 204.628906 308.371094 241.703125 308.371094 241.703125 C 308.371094 241.703125 243.355469 201.953125 243.355469 157.394531 "/>
</g>
<g clip-path="url(#clip2)" clip-rule="nonzero">
<path style=" stroke:none;fill-rule:nonzero;fill:rgb(11.399841%,11.399841%,25.898743%);fill-opacity:1;" d="M 87.347656 215.351563 C 49.503906 215.351563 11.460938 238.332031 11.460938 238.332031 C 11.460938 238.332031 39.730469 224.859375 74.667969 224.859375 C 119.054688 224.859375 146.792969 251.785156 138.867188 320.78125 C 162.25 261.515625 133.121094 215.351563 87.347656 215.351563 "/>
</g>
<path style=" stroke:none;fill-rule:nonzero;fill:rgb(11.399841%,11.399841%,25.898743%);fill-opacity:1;" d="M 65.355469 99.632813 C 40.273438 99.632813 19.980469 90.914063 19.980469 90.914063 C 19.980469 90.914063 44.550781 111.125 77.640625 111.125 C 132.726563 111.125 154.320313 65.503906 154.320313 9.472656 C 143.027344 63.171875 114.53125 99.632813 65.355469 99.632813 "/>
<path style=" stroke:none;fill-rule:nonzero;fill:rgb(11.399841%,11.399841%,25.898743%);fill-opacity:1;" d="M 235.363281 95.867188 C 191.179688 95.867188 161.652344 67.730469 164.824219 -0.00390625 C 145.507813 80.90625 189.195313 107.753906 222.882813 107.753906 C 256.765625 107.753906 288.269531 84.574219 288.269531 84.574219 C 288.269531 84.574219 260.726563 95.867188 235.363281 95.867188 "/>
<path style=" stroke:none;fill-rule:nonzero;fill:rgb(11.399841%,11.399841%,25.898743%);fill-opacity:1;" d="M 253.21875 221.09375 C 253.984375 224.957031 247.9375 228.128906 241.410156 228.722656 C 234.882813 228.128906 228.835938 224.957031 229.601563 221.09375 L 226.550781 225.058594 C 226.550781 225.058594 228.121094 233.777344 241.410156 235.957031 C 254.695313 233.777344 256.269531 225.058594 256.269531 225.058594 "/>
<path style=" stroke:none;fill-rule:nonzero;fill:rgb(11.399841%,11.399841%,25.898743%);fill-opacity:1;" d="M 248.839844 217.230469 C 248.839844 212.078125 241.609375 210.496094 241.609375 210.496094 L 228.828125 217.332031 C 235.859375 219.511719 241.046875 222.515625 241.410156 228.722656 C 241.410156 228.722656 248.839844 223.859375 248.839844 217.230469 "/>
<path style=" stroke:none;fill-rule:nonzero;fill:rgb(11.399841%,11.399841%,25.898743%);fill-opacity:1;" d="M 125.773438 127.75 C 130.472656 123.050781 136.273438 119.453125 142.75 117.363281 L 143.453125 121.765625 L 128.195313 131.394531 L 124.78125 128.792969 C 125.105469 128.441406 125.433594 128.089844 125.773438 127.75 M 128.167969 132.027344 Z M 156.277344 126.367188 L 156.277344 138.105469 L 140.5 149.722656 L 126.09375 148.5 L 128.644531 132.34375 L 144.09375 122.589844 Z M 156.800781 125.984375 Z M 157.320313 126.367188 L 170.726563 122.234375 L 181.992188 131.296875 L 185.425781 146.523438 L 172.875 149.496094 L 157.320313 138.105469 Z M 170.839844 121.652344 L 170.839844 121.65625 Z M 182.464844 131.003906 L 182.464844 131.007813 Z M 185.84375 127.75 C 185.960938 127.863281 186.066406 127.984375 186.179688 128.101563 L 182.503906 130.371094 L 171.34375 121.390625 L 171.121094 118.164063 C 176.6875 120.320313 181.695313 123.601563 185.84375 127.75 M 172.761719 150.058594 Z M 113.5 161.457031 L 117.355469 159.492188 L 122.441406 171.425781 L 123.324219 170.84375 L 118.21875 158.859375 L 125.726563 149.511719 L 140.261719 150.746094 L 146.253906 169.539063 L 152.089844 169.539063 L 168.878906 158.078125 C 169.183594 157.871094 169.535156 157.769531 169.886719 157.769531 C 170.269531 157.769531 170.652344 157.894531 170.96875 158.140625 L 173.179688 150.492188 L 185.808594 147.5 L 193.0625 158.828125 L 187.46875 171.902344 L 188.300781 172.59375 L 193.972656 159.339844 L 198.234375 159.851563 C 197.9375 166.03125 196.320313 171.859375 193.664063 177.070313 L 194.941406 178.140625 C 198.117188 172.046875 199.921875 165.132813 199.921875 157.785156 C 199.921875 138.761719 187.878906 122.550781 170.996094 116.359375 L 170.996094 116.347656 L 170.96875 116.347656 C 166.238281 114.621094 161.136719 113.675781 155.808594 113.675781 C 131.445313 113.675781 111.695313 133.425781 111.695313 157.785156 C 111.695313 164.265625 113.105469 170.410156 115.613281 175.953125 L 116.996094 175.035156 C 115.125 170.824219 113.910156 166.257813 113.5 161.457031 "/>
<path style=" stroke:none;fill-rule:nonzero;fill:rgb(11.399841%,11.399841%,25.898743%);fill-opacity:1;" d="M 169.886719 159.550781 L 146.730469 175.359375 L 134.785156 165.390625 L 102.113281 187.035156 L 106.09375 192.601563 L 134.316406 173.902344 L 140.863281 179.363281 L 133.554688 184.351563 L 137.878906 189.679688 L 169.472656 168.109375 L 202.511719 195.683594 L 206.894531 190.433594 "/>
</g>
</svg>
